<?xml version="1.0" encoding="UTF-8"?> <svg xmlns="http://www.w3.org/2000/svg" id="Layer_2" data-name="Layer 2" viewBox="0 0 251.57 28.2"><defs><style> .cls-1 { fill: #fff; opacity: .2; } .cls-1, .cls-2 { stroke-width: 0px; } .cls-2 { fill: #ff4100; } </style></defs><g id="Layer_1-2" data-name="Layer 1"><path class="cls-2" d="M161.1,0h-15.37v1.74s4.79-.07,4.61,1.78c-.02.2-.02.33-.01.44l-1.64,23.41c-.04.54.21.83.69.83h9.75c.52,0,.8-.29.84-.83l1.85-26.5c.04-.58-.2-.87-.72-.87Z"></path><path class="cls-2" d="M174.48,28.2c-7.02,0-11.41-6.12-10.85-14.1C164.2,5.91,169.31,0,176.45,0h17.59C201.21,0,205.45,6.04,204.89,14.1c-.56,7.94-5.73,14.1-12.83,14.1h-17.59ZM187.11,24.35c3.77,0,5.91-2.81,6.43-10.29.53-7.48-.25-10.25-5-10.25h-7.69c-4.3,0-5.72,2.77-6.24,10.25-.52,7.49,1.15,10.29,4.81,10.29h7.69Z"></path><path class="cls-2" d="M145.71,27.09l-14.86-11.91h5.19c4.37,0,7.8-2.61,8.14-7.44.34-4.88-2.71-7.73-7.08-7.73h-31.41c-.67,0-1,.37-1.05,1.07l-1.66,23.73L84.08.7c-.38-.45-.78-.7-1.37-.7h-1.83c-.52,0-.99.25-1.43.7l-24.54,26.26c-.24.2-.29.45-.31.62-.03.37.22.62.59.62h1.57c1.24,0,1.57-.57,1.57-.57l5.62-6.1h15.74c.53,0,.99-.44.76-.83l-1.81-2.47c-.41-.55-.85-.55-1.45-.55h-9.68l8.69-9.42,14.79,19.23c.38.49.81.7,1.48.7h20.79c.49,0,.8-.29.84-.83l1.65-23.57h13.22c2.65,0,4.12.95,3.92,3.76-.2,2.85-1.8,3.88-4.41,3.88h-9.97c-.53,0-.8.29-.84.83l-.07,1.04c-.04.58.12.91.47,1.2l14.16,12.77c.91.79,1.73.91,3.11.91h10.01c.41,0,.58-.29.6-.54.01-.16-.08-.41-.22-.58Z"></path><path class="cls-2" d="M250.84,0h-9.34v1.74s4.79-.07,4.61,1.78h0s-.9,12.81-.9,12.81L216.48.66c-1.08-.58-1.67-.66-2.94-.66h-3.7c-.49,0-.76.29-.8.87l-1.85,26.5c-.04.54.2.83.69.83h3.74c.52,0,.8-.29.84-.83l1.11-15.88,30.25,16.08c.97.5,1.78.62,2.91.62h2.16c.52,0,.8-.29.84-.83l1.85-26.5c.04-.58-.2-.87-.72-.87Z"></path><path class="cls-2" d="M73.16,0H8.71C4.83,0,2.03,2.69,1.74,6.78c-.23,3.27,1.37,5.46,4.27,6.82l17.13,8.19c.69.33,1.07.7,1.02,1.36-.06.83-.61,1.2-1.35,1.2H3.97c-1.86,0-1.73-4.6-1.73-4.6H.49l-.34,5.52H.15S0,27.37,0,27.37c-.04.54.2.83.73.83h27.38c3.92,0,6.72-2.69,7.01-6.78.23-3.27-1.37-5.46-4.26-6.86L13.72,6.41c-.69-.33-1.07-.7-1.03-1.36.06-.83.61-1.24,1.36-1.24h27.51l-1.67,23.94c-.02.29.15.45.53.45h10.12c.41,0,.57-.16.59-.45l1.67-23.94h16.92c.34,0,.59,0,1-.41l2.76-2.94c.28-.3-.02-.45-.33-.45Z"></path><path class="cls-1" d="M137.11,0h-31.41c-.67,0-1,.37-1.05,1.07l-.47,6.67c3.71-.04,7.47-.07,11.28-.09l.27-3.85h13.22c2.65,0,4.12.95,3.92,3.76,0,.02,0,.04,0,.07,3.82.01,7.59.04,11.31.07.33-4.87-2.72-7.71-7.08-7.71Z"></path><path class="cls-1" d="M194.04,0h-17.59c-5.2,0-9.32,3.15-11.4,8.03,3.53.07,7,.16,10.4.25.88-3.19,2.48-4.48,5.4-4.48h7.69c3.43,0,4.78,1.46,5.07,5.09,3.81.16,7.48.32,11.02.5-1.07-5.6-4.91-9.4-10.59-9.4Z"></path><path class="cls-1" d="M250.84,0h-9.34v1.74s4.79-.07,4.61,1.78h0s-.65,9.37-.65,9.37c1.99.31,3.73.62,5.2.94l.91-12.96c.04-.58-.2-.87-.72-.87Z"></path><path class="cls-1" d="M209.84,0c-.48,0-.76.29-.8.87l-.61,8.74c11.19.62,20.83,1.35,28.46,2.18L216.48.66c-1.08-.58-1.67-.66-2.94-.66h-3.7Z"></path><path class="cls-1" d="M161.33,7.95l.49-7.08c.04-.58-.2-.87-.72-.87h-15.37v1.74s4.79-.07,4.61,1.78c-.02.2-.02.33-.01.44l-.27,3.81c3.82.05,7.58.11,11.27.18Z"></path><path class="cls-1" d="M52.43,9.14l.37-5.33h16.92c.34,0,.59,0,1-.41l2.76-2.94c.28-.3-.02-.45-.33-.45H8.71C4.83,0,2.03,2.69,1.74,6.78c-.2,2.87,1.01,4.9,3.26,6.28,4.64-.76,10.82-1.47,18.29-2.1l-9.57-4.55c-.69-.33-1.07-.7-1.03-1.36.06-.83.61-1.24,1.36-1.24h27.51l-.41,5.91c3.6-.21,7.36-.4,11.28-.58Z"></path><path class="cls-1" d="M84.08.7c-.38-.45-.78-.7-1.37-.7h-1.83c-.52,0-.99.25-1.43.7l-7.19,7.69c1.29-.04,2.6-.08,3.92-.11h.01s0,0,0,0c4.41-.12,8.94-.23,13.58-.32l-5.7-7.26Z"></path></g></svg> 